<?xml version="1.0" encoding="UTF-8" standalone="no"?>
<!DOCTYPE svg PUBLIC "-//W3C//DTD SVG 1.1//EN" "http://www.w3.org/Graphics/SVG/1.1/DTD/svg11.dtd">
<svg width="100%" height="100%" viewBox="0 0 600 600" version="1.1" xmlns="http://www.w3.org/2000/svg" xmlns:xlink="http://www.w3.org/1999/xlink" xml:space="preserve" xmlns:serif="http://www.serif.com/" style="fill-rule:evenodd;clip-rule:evenodd;stroke-linejoin:round;stroke-miterlimit:2;">
    <path d="M567.898,380.689C602.339,346.248 602.339,290.324 567.898,255.883L318.286,6.271L6.271,318.286L255.883,567.898C290.324,602.339 346.248,602.339 380.689,567.898L567.898,380.689ZM380.482,233.579C371.616,224.714 362.751,219.94 353.545,218.917C343.656,217.895 335.814,220.963 328.653,228.124C321.834,234.943 319.447,243.468 321.834,254.038C323.88,264.267 333.427,283.362 350.817,311.663C367.525,339.964 376.731,365.537 378.095,389.405C379.459,413.274 369.57,435.437 348.089,456.919C326.607,478.4 301.716,487.607 272.392,484.879C242.727,481.81 215.108,467.83 188.853,441.575C151.005,403.726 131.228,355.99 128.841,297.683L199.423,290.522C202.492,338.6 215.108,373.721 236.931,395.543C246.819,405.431 256.366,410.887 266.596,412.251C276.143,413.615 284.667,410.546 291.828,403.385C298.988,396.225 301.375,387.701 300.011,377.471C298.306,367.583 290.464,351.557 277.507,329.735C256.366,295.637 244.773,266.313 242.727,243.127C240.341,219.599 250.229,196.754 272.733,174.25C295.579,151.404 321.152,142.198 349.794,146.29C378.095,150.04 404.691,164.361 428.9,188.571C444.926,204.596 457.883,223.009 468.453,244.491C479.024,265.972 484.82,287.454 486.866,309.276L421.058,321.21C415.943,284.726 402.645,255.743 380.482,233.579Z" style="fill:white;"/>
</svg>
