<?xml version="1.0" encoding="UTF-8" standalone="no"?>
<!DOCTYPE svg PUBLIC "-//W3C//DTD SVG 1.1//EN" "http://www.w3.org/Graphics/SVG/1.1/DTD/svg11.dtd">
<svg width="100%" height="100%" viewBox="0 0 3336 600" version="1.1" xmlns="http://www.w3.org/2000/svg" xmlns:xlink="http://www.w3.org/1999/xlink" xml:space="preserve" xmlns:serif="http://www.serif.com/" style="fill-rule:evenodd;clip-rule:evenodd;stroke-linejoin:round;stroke-miterlimit:2;">
    <g transform="matrix(0.520025,0.520025,-0.520025,0.520025,312.02,6.2709)">
        <path d="M600,120C600,53.77 546.23,0 480,0L0,0L0,600L480,600C546.23,600 600,546.23 600,480L600,120Z" style="fill:rgb(255,0,91);"/>
    </g>
    <g transform="matrix(340.976,340.976,-340.976,340.976,71.08,324.62)">
        <path d="M0.311,-0.578C0.285,-0.578 0.265,-0.572 0.25,-0.56C0.234,-0.547 0.227,-0.531 0.227,-0.51C0.227,-0.49 0.236,-0.474 0.255,-0.462C0.273,-0.45 0.315,-0.436 0.382,-0.42C0.448,-0.403 0.499,-0.379 0.536,-0.346C0.573,-0.313 0.591,-0.266 0.591,-0.203C0.591,-0.14 0.568,-0.09 0.521,-0.051C0.473,-0.012 0.412,0.008 0.335,0.008C0.224,0.008 0.125,-0.033 0.036,-0.115L0.129,-0.229C0.204,-0.163 0.274,-0.13 0.338,-0.13C0.367,-0.13 0.389,-0.136 0.406,-0.149C0.422,-0.161 0.43,-0.178 0.43,-0.199C0.43,-0.22 0.421,-0.236 0.404,-0.249C0.387,-0.261 0.352,-0.273 0.301,-0.286C0.22,-0.305 0.16,-0.331 0.123,-0.362C0.085,-0.393 0.066,-0.441 0.066,-0.507C0.066,-0.574 0.09,-0.625 0.138,-0.661C0.185,-0.697 0.245,-0.715 0.316,-0.715C0.363,-0.715 0.409,-0.707 0.456,-0.691C0.503,-0.675 0.543,-0.652 0.578,-0.623L0.499,-0.509C0.438,-0.555 0.376,-0.578 0.311,-0.578Z" style="fill:white;fill-rule:nonzero;"/>
    </g>
    <path d="M780.088,188.224C767.143,188.224 756.936,191.294 749.468,197.435C741.999,203.575 738.265,211.708 738.265,221.831C738.265,231.955 742.829,240.005 751.957,245.979C761.085,251.954 782.162,259.007 815.189,267.14C848.216,275.272 873.857,287.47 892.113,303.735C910.369,319.999 919.497,343.732 919.497,374.933C919.497,406.134 907.797,431.444 884.396,450.861C860.995,470.279 830.209,479.988 792.037,479.988C736.937,479.988 687.314,459.574 643.168,418.747L689.472,361.988C726.979,394.849 761.666,411.279 793.531,411.279C807.804,411.279 819.006,408.209 827.139,402.068C835.271,395.927 839.337,387.629 839.337,377.173C839.337,366.718 835.022,358.42 826.392,352.279C817.762,346.138 800.667,339.915 775.109,333.608C734.614,323.982 704.989,311.452 686.235,296.017C667.481,280.583 658.105,256.352 658.105,223.325C658.105,190.298 669.971,164.823 693.704,146.899C717.437,128.975 747.061,120.013 782.577,120.013C805.812,120.013 829.047,123.996 852.282,131.962C875.517,139.928 895.764,151.214 913.025,165.819L873.691,222.578C843.486,199.675 812.285,188.224 780.088,188.224ZM1798.28,386.384C1811.22,402.317 1828.65,410.283 1850.55,410.283C1872.46,410.283 1889.8,402.234 1902.58,386.136C1915.36,370.037 1921.75,348.047 1921.75,320.165L1921.75,127.979L1999.42,127.979L1999.42,322.654C1999.42,373.107 1985.48,411.86 1957.6,438.912C1929.72,465.964 1894.04,479.49 1850.55,479.49C1807.07,479.49 1771.31,465.881 1743.26,438.663C1715.21,411.445 1701.19,372.775 1701.19,322.654L1701.19,127.979L1778.86,127.979L1778.86,320.165C1778.86,348.047 1785.33,370.12 1798.28,386.384ZM2605.36,476.005L2572.99,400.823L2427.11,400.823L2394.75,476.005L2312.1,476.005L2462.46,127.979L2537.64,127.979L2688.01,476.005L2605.36,476.005ZM1229.68,476.005L1197.32,400.823L1051.44,400.823L1019.08,476.005L936.425,476.005L1086.79,127.979L1161.97,127.979L1312.33,476.005L1229.68,476.005ZM2227.46,195.194L2227.46,476.005L2149.79,476.005L2149.79,195.194L2051.2,195.194L2051.2,127.979L2326.04,127.979L2326.04,195.194L2227.46,195.194ZM1352.66,127.979L1430.33,127.979L1430.33,270.874L1561.78,127.979L1657.87,127.979L1519.46,281.827C1531.4,298.424 1553.48,329.376 1585.67,374.684C1617.87,419.992 1641.94,453.766 1657.87,476.005L1567.25,476.005L1465.19,338.587L1430.33,377.422L1430.33,476.005L1352.66,476.005L1352.66,127.979ZM2500.3,231.54L2456.49,332.612L2543.62,332.612L2500.3,231.54ZM1124.63,231.54L1080.81,332.612L1167.94,332.612L1124.63,231.54Z" style="fill:white;fill-rule:nonzero;"/>
    <path d="M2800.66,478.092L2728.15,478.092L2728.15,312.453L2792.61,312.453C2803.82,312.453 2813.5,313.795 2821.63,316.481C2829.77,319.167 2835.89,322.8 2840,327.381C2847.42,335.912 2851.14,345.549 2851.14,356.291C2851.14,369.245 2846.95,378.882 2838.58,385.201C2835.73,387.413 2833.76,388.795 2832.65,389.348C2831.55,389.901 2829.57,390.809 2826.73,392.073C2837,394.285 2845.17,398.906 2851.26,405.936C2857.34,412.966 2860.38,421.694 2860.38,432.12C2860.38,443.653 2856.43,453.842 2848.53,462.689C2839.37,472.958 2823.41,478.092 2800.66,478.092ZM3010.85,312.453L3010.85,345.391L2928.39,345.391L2928.39,379.514L3002.56,379.514L3002.56,411.03L2928.39,411.03L2928.39,445.391L3013.46,445.391L3013.46,478.092L2891.42,478.092L2891.42,312.453L3010.85,312.453ZM3116.54,344.443L3116.54,478.092L3079.57,478.092L3079.57,344.443L3032.65,344.443L3032.65,312.453L3163.46,312.453L3163.46,344.443L3116.54,344.443ZM3296.39,478.092L3280.99,442.31L3211.56,442.31L3196.16,478.092L3156.82,478.092L3228.38,312.453L3264.17,312.453L3335.73,478.092L3296.39,478.092ZM2765.12,446.812L2790.47,446.812C2801.06,446.812 2809,445.509 2814.29,442.902C2819.58,440.296 2822.23,435.162 2822.23,427.5C2822.23,419.838 2819.42,414.782 2813.81,412.334C2808.21,409.885 2799.24,408.661 2786.92,408.661L2765.12,408.661L2765.12,446.812ZM3246.39,361.742L3225.54,409.846L3267.01,409.846L3246.39,361.742ZM2765.12,379.514L2782.65,379.514C2792.92,379.514 2800.54,378.408 2805.52,376.196C2810.5,373.985 2812.99,369.206 2812.99,361.86C2812.99,354.514 2810.69,349.656 2806.11,347.287C2801.53,344.917 2793.79,343.732 2782.89,343.732L2765.12,343.732L2765.12,379.514Z" style="fill:rgb(194,194,194);fill-rule:nonzero;"/>
</svg>
